<svg width="315" height="167" viewBox="0 0 315 167" fill="none" xmlns="http://www.w3.org/2000/svg">
<path d="M29 147V150H32V147H29ZM47 147H44V150H47V147ZM64.5 147V150H67.5L67.5 147L64.5 147ZM82.5 147H79.5V150H82.5V147ZM101 147V150H104V147H101ZM119 147H116V150H119V147ZM191.5 147V150H194.5V147H191.5ZM209.5 147H206.5V150H209.5V147ZM234 147V150H237L237 147L234 147ZM252 147H249V150H252V147ZM289 150C290.657 150 292 148.657 292 147C292 145.343 290.657 144 289 144V150ZM29 147C32 147 32 147 32 146.999C32 146.998 32 146.997 32 146.995C32 146.991 32 146.985 32 146.978C32 146.963 32 146.94 32 146.91C32.0001 146.85 32.0001 146.761 32.0003 146.642C32.0005 146.405 32.0011 146.052 32.0022 145.592C32.0044 144.672 32.0088 143.321 32.0175 141.601C32.0351 138.162 32.0702 133.247 32.1404 127.348C32.2809 115.549 32.5617 99.8248 33.1231 84.1071C33.685 68.3733 34.5259 52.71 35.7798 41.0072C36.4089 35.1352 37.1301 30.3801 37.9397 27.1417C38.3507 25.4979 38.7411 24.4275 39.0602 23.8318C39.2203 23.5329 39.2825 23.5072 39.1932 23.5878C39.0784 23.6915 38.6655 24.0001 38 24.0001L38 18.0001C36.772 18.0001 35.8142 18.5547 35.1715 19.1352C34.5543 19.6927 34.1056 20.3745 33.7713 20.9984C33.1017 22.2484 32.5692 23.8851 32.1189 25.6865C31.2058 29.3388 30.4504 34.4275 29.8139 40.368C28.5366 52.2902 27.69 68.1268 27.1269 83.893C26.5633 99.6753 26.2816 115.451 26.1408 127.277C26.0704 133.191 26.0352 138.12 26.0176 141.571C26.0088 143.296 26.0044 144.652 26.0022 145.578C26.0011 146.041 26.0006 146.396 26.0003 146.635C26.0001 146.755 26.0001 146.846 26 146.907C26 146.938 26 146.961 26 146.976C26 146.984 26 146.99 26 146.994C26 146.996 26 146.997 26 146.998C26 146.999 26 147 29 147ZM38 24.0001C37.3346 24.0001 36.9216 23.6915 36.8068 23.5878C36.7175 23.5072 36.7797 23.5329 36.9398 23.8318C37.2589 24.4275 37.6493 25.4978 38.0603 27.1417C38.8699 30.38 39.5911 35.1351 40.2202 41.0071C41.4741 52.7099 42.315 68.3732 42.8769 84.1071C43.4383 99.8247 43.7191 115.549 43.8596 127.348C43.9298 133.247 43.9649 138.162 43.9825 141.601C43.9912 143.321 43.9956 144.672 43.9978 145.592C43.9989 146.052 43.9995 146.405 43.9997 146.642C43.9999 146.761 43.9999 146.85 44 146.91C44 146.94 44 146.963 44 146.978C44 146.985 44 146.991 44 146.995C44 146.997 44 146.998 44 146.999C44 147 44 147 47 147C50 147 50 146.999 50 146.998C50 146.997 50 146.996 50 146.994C50 146.99 50 146.984 50 146.976C50 146.961 50 146.938 50 146.907C49.9999 146.846 49.9999 146.755 49.9997 146.635C49.9994 146.396 49.9989 146.041 49.9978 145.578C49.9956 144.652 49.9912 143.296 49.9824 141.571C49.9648 138.12 49.9296 133.191 49.8592 127.277C49.7184 115.451 49.4367 99.6753 48.8731 83.8929C48.31 68.1268 47.4634 52.2901 46.1861 40.3679C45.5496 34.4275 44.7942 29.3388 43.8811 25.6865C43.4308 23.8851 42.8983 22.2484 42.2287 20.9984C41.8944 20.3745 41.4457 19.6926 40.8285 19.1352C40.1858 18.5547 39.2279 18.0001 38 18.0001L38 24.0001ZM47 150H64.5V144H47V150ZM64.5 147C67.5 147 67.5 147 67.5 146.999C67.5 146.999 67.5 146.998 67.5 146.997C67.5 146.994 67.5 146.991 67.5 146.986C67.5 146.976 67.5 146.961 67.5 146.941C67.5001 146.901 67.5001 146.841 67.5003 146.761C67.5005 146.602 67.5011 146.365 67.5022 146.056C67.5044 145.437 67.5087 144.528 67.5175 143.37C67.535 141.055 67.57 137.744 67.6401 133.772C67.7804 125.823 68.0608 115.236 68.6208 104.659C69.182 94.0581 70.0195 83.5604 71.2597 75.7519C71.8839 71.8219 72.5859 68.7361 73.3423 66.6949C73.7262 65.659 74.0559 65.0837 74.2651 64.8203C74.4862 64.5419 74.241 65.0001 73.5 65.0001V59.0001C71.6339 59.0001 70.3341 60.1223 69.5664 61.089C68.7869 62.0707 68.1937 63.3216 67.7162 64.6099C66.75 67.2171 65.9755 70.772 65.334 74.8107C64.0429 82.9397 63.193 93.692 62.6292 104.341C62.0642 115.014 61.7821 125.677 61.6411 133.666C61.5706 137.662 61.5353 140.992 61.5177 143.325C61.5088 144.491 61.5044 145.409 61.5022 146.035C61.5011 146.348 61.5005 146.588 61.5003 146.751C61.5001 146.832 61.5001 146.894 61.5 146.936C61.5 146.957 61.5 146.973 61.5 146.983C61.5 146.989 61.5 146.993 61.5 146.995C61.5 146.997 61.5 146.998 61.5 146.999C61.5 147 61.5 147 64.5 147ZM82.5 150H101V144H82.5V150ZM101 147C104 147 104 147 104 146.999C104 146.998 104 146.997 104 146.995C104 146.991 104 146.985 104 146.978C104 146.963 104 146.94 104 146.91C104 146.85 104 146.761 104 146.642C104.001 146.405 104.001 146.052 104.002 145.592C104.004 144.672 104.009 143.321 104.018 141.601C104.035 138.162 104.07 133.247 104.14 127.348C104.281 115.549 104.562 99.8248 105.123 84.1071C105.685 68.3733 106.526 52.7099 107.78 41.0072C108.409 35.1351 109.13 30.3801 109.94 27.1417C110.351 25.4978 110.741 24.4275 111.06 23.8318C111.22 23.5329 111.282 23.5072 111.193 23.5878C111.078 23.6915 110.665 24.0001 110 24.0001L110 18.0001C108.772 18.0001 107.814 18.5547 107.171 19.1352C106.554 19.6927 106.106 20.3745 105.771 20.9984C105.102 22.2484 104.569 23.8851 104.119 25.6865C103.206 29.3388 102.45 34.4275 101.814 40.368C100.537 52.2902 99.69 68.1268 99.1269 83.893C98.5633 99.6753 98.2816 115.451 98.1409 127.277C98.0704 133.191 98.0352 138.12 98.0176 141.571C98.0088 143.296 98.0044 144.652 98.0022 145.578C98.0011 146.041 98.0006 146.396 98.0003 146.635C98.0002 146.755 98.0001 146.846 98.0001 146.907C98 146.938 98 146.961 98 146.976C98 146.984 98 146.99 98 146.994C98 146.996 98 146.997 98 146.998C98 146.999 98 147 101 147ZM110 24.0001C109.335 24.0001 108.922 23.6915 108.807 23.5878C108.718 23.5072 108.78 23.5329 108.94 23.8318C109.259 24.4275 109.649 25.4978 110.06 27.1417C110.87 30.3801 111.591 35.1351 112.22 41.0072C113.474 52.7099 114.315 68.3733 114.877 84.1071C115.438 99.8248 115.719 115.549 115.86 127.348C115.93 133.247 115.965 138.162 115.982 141.601C115.991 143.321 115.996 144.672 115.998 145.592C115.999 146.052 115.999 146.405 116 146.642C116 146.761 116 146.85 116 146.91C116 146.94 116 146.963 116 146.978C116 146.985 116 146.991 116 146.995C116 146.997 116 146.998 116 146.999C116 147 116 147 119 147C122 147 122 146.999 122 146.998C122 146.997 122 146.996 122 146.994C122 146.99 122 146.984 122 146.976C122 146.961 122 146.938 122 146.907C122 146.846 122 146.755 122 146.635C121.999 146.396 121.999 146.041 121.998 145.578C121.996 144.652 121.991 143.296 121.982 141.571C121.965 138.12 121.93 133.191 121.859 127.277C121.718 115.451 121.437 99.6753 120.873 83.893C120.31 68.1268 119.463 52.2902 118.186 40.368C117.55 34.4275 116.794 29.3388 115.881 25.6865C115.431 23.8851 114.898 22.2484 114.229 20.9984C113.894 20.3745 113.446 19.6927 112.829 19.1352C112.186 18.5547 111.228 18.0001 110 18.0001L110 24.0001ZM73.5 65.0001C72.7589 65.0001 72.5138 64.5419 72.7349 64.8203C72.9441 65.0837 73.2738 65.659 73.6577 66.6949C74.4141 68.7361 75.1161 71.8219 75.7403 75.7519C76.9804 83.5604 77.818 94.0581 78.3792 104.659C78.9392 115.236 79.2196 125.823 79.3598 133.772C79.43 137.744 79.465 141.055 79.4825 143.37C79.4913 144.528 79.4956 145.437 79.4978 146.056C79.4989 146.365 79.4995 146.602 79.4997 146.761C79.4999 146.841 79.4999 146.901 79.5 146.941C79.5 146.961 79.5 146.976 79.5 146.986C79.5 146.991 79.5 146.994 79.5 146.997C79.5 146.998 79.5 146.999 79.5 146.999C79.5 147 79.5 147 82.5 147C85.5 147 85.5 147 85.5 146.999C85.5 146.998 85.5 146.997 85.5 146.995C85.5 146.993 85.5 146.989 85.5 146.983C85.5 146.973 85.5 146.957 85.5 146.936C85.4999 146.894 85.4999 146.832 85.4997 146.751C85.4994 146.588 85.4989 146.348 85.4978 146.035C85.4956 145.409 85.4912 144.491 85.4823 143.325C85.4647 140.992 85.4294 137.662 85.3589 133.666C85.2179 125.677 84.9358 115.014 84.3708 104.341C83.807 93.692 82.9571 82.9397 81.666 74.8107C81.0245 70.772 80.2499 67.2171 79.2837 64.6099C78.8063 63.3216 78.2131 62.0707 77.4336 61.089C76.6659 60.1223 75.366 59.0001 73.5 59.0001V65.0001ZM119 150H191.5V144H119V150ZM191.5 147C194.5 147 194.5 147 194.5 146.999C194.5 146.998 194.5 146.997 194.5 146.995C194.5 146.991 194.5 146.985 194.5 146.978C194.5 146.963 194.5 146.94 194.5 146.91C194.5 146.85 194.5 146.761 194.5 146.642C194.501 146.405 194.501 146.052 194.502 145.592C194.504 144.672 194.509 143.321 194.518 141.601C194.535 138.162 194.57 133.247 194.64 127.348C194.781 115.549 195.062 99.8248 195.623 84.1071C196.185 68.3733 197.026 52.7099 198.28 41.0072C198.909 35.1351 199.63 30.3801 200.44 27.1417C200.851 25.4978 201.241 24.4275 201.56 23.8318C201.72 23.5329 201.782 23.5072 201.693 23.5878C201.578 23.6915 201.165 24.0001 200.5 24.0001V18.0001C199.272 18.0001 198.314 18.5547 197.671 19.1352C197.054 19.6927 196.606 20.3745 196.271 20.9984C195.602 22.2484 195.069 23.8851 194.619 25.6865C193.706 29.3388 192.95 34.4275 192.314 40.368C191.037 52.2902 190.19 68.1268 189.627 83.893C189.063 99.6753 188.782 115.451 188.641 127.277C188.57 133.191 188.535 138.12 188.518 141.571C188.509 143.296 188.504 144.652 188.502 145.578C188.501 146.041 188.501 146.396 188.5 146.635C188.5 146.755 188.5 146.846 188.5 146.907C188.5 146.938 188.5 146.961 188.5 146.976C188.5 146.984 188.5 146.99 188.5 146.994C188.5 146.996 188.5 146.997 188.5 146.998C188.5 146.999 188.5 147 191.5 147ZM200.5 24.0001C199.835 24.0001 199.422 23.6915 199.307 23.5878C199.218 23.5072 199.28 23.5329 199.44 23.8318C199.759 24.4275 200.149 25.4978 200.56 27.1417C201.37 30.3801 202.091 35.1351 202.72 41.0072C203.974 52.7099 204.815 68.3733 205.377 84.1071C205.938 99.8248 206.219 115.549 206.36 127.348C206.43 133.247 206.465 138.162 206.482 141.601C206.491 143.321 206.496 144.672 206.498 145.592C206.499 146.052 206.499 146.405 206.5 146.642C206.5 146.761 206.5 146.85 206.5 146.91C206.5 146.94 206.5 146.963 206.5 146.978C206.5 146.985 206.5 146.991 206.5 146.995C206.5 146.997 206.5 146.998 206.5 146.999C206.5 147 206.5 147 209.5 147C212.5 147 212.5 146.999 212.5 146.998C212.5 146.997 212.5 146.996 212.5 146.994C212.5 146.99 212.5 146.984 212.5 146.976C212.5 146.961 212.5 146.938 212.5 146.907C212.5 146.846 212.5 146.755 212.5 146.635C212.499 146.396 212.499 146.041 212.498 145.578C212.496 144.652 212.491 143.296 212.482 141.571C212.465 138.12 212.43 133.191 212.359 127.277C212.218 115.451 211.937 99.6753 211.373 83.893C210.81 68.1268 209.963 52.2902 208.686 40.368C208.05 34.4275 207.294 29.3388 206.381 25.6865C205.931 23.8851 205.398 22.2484 204.729 20.9984C204.394 20.3745 203.946 19.6927 203.329 19.1352C202.686 18.5547 201.728 18.0001 200.5 18.0001V24.0001ZM209.5 150H234V144H209.5V150ZM234 147C237 147 237 147 237 146.999C237 146.999 237 146.998 237 146.997C237 146.994 237 146.991 237 146.986C237 146.976 237 146.961 237 146.941C237 146.901 237 146.841 237 146.761C237 146.602 237.001 146.365 237.002 146.056C237.004 145.437 237.009 144.528 237.017 143.37C237.035 141.055 237.07 137.744 237.14 133.772C237.28 125.823 237.561 115.236 238.121 104.659C238.682 94.0581 239.519 83.5604 240.76 75.7519C241.384 71.8219 242.086 68.7361 242.842 66.6949C243.226 65.659 243.556 65.0838 243.765 64.8203C243.986 64.5419 243.741 65.0001 243 65.0001V59.0001C241.134 59.0001 239.834 60.1223 239.066 61.089C238.287 62.0707 237.694 63.3216 237.216 64.6099C236.25 67.2171 235.475 70.772 234.834 74.8107C233.543 82.9397 232.693 93.692 232.129 104.341C231.564 115.014 231.282 125.677 231.141 133.666C231.07 137.662 231.035 140.992 231.017 143.325C231.009 144.491 231.004 145.409 231.002 146.035C231.001 146.348 231 146.588 231 146.751C231 146.832 231 146.894 231 146.936C231 146.957 231 146.973 231 146.983C231 146.989 231 146.993 231 146.995C231 146.997 231 146.998 231 146.999C231 147 231 147 234 147ZM243 65.0001C242.259 65.0001 242.014 64.5419 242.235 64.8203C242.444 65.0837 242.774 65.659 243.158 66.6949C243.914 68.7361 244.616 71.8219 245.24 75.7519C246.48 83.5604 247.318 94.0581 247.879 104.659C248.439 115.236 248.72 125.823 248.86 133.772C248.93 137.744 248.965 141.055 248.983 143.37C248.991 144.528 248.996 145.437 248.998 146.056C248.999 146.365 248.999 146.602 249 146.761C249 146.841 249 146.901 249 146.941C249 146.961 249 146.976 249 146.986C249 146.991 249 146.994 249 146.997C249 146.998 249 146.999 249 146.999C249 147 249 147 252 147C255 147 255 147 255 146.999C255 146.998 255 146.997 255 146.995C255 146.993 255 146.989 255 146.983C255 146.973 255 146.957 255 146.936C255 146.894 255 146.832 255 146.751C254.999 146.588 254.999 146.348 254.998 146.035C254.996 145.409 254.991 144.491 254.982 143.325C254.965 140.992 254.929 137.662 254.859 133.666C254.718 125.677 254.436 115.014 253.871 104.341C253.307 93.692 252.457 82.9397 251.166 74.8107C250.524 70.772 249.75 67.2171 248.784 64.6099C248.306 63.3216 247.713 62.0707 246.933 61.089C246.166 60.1223 244.866 59.0001 243 59.0001V65.0001ZM252 150H289V144H252V150ZM29 144H17V150H29V144Z" fill="#0372AD"/>
<path d="M16.4142 0.585786C15.6332 -0.195262 14.3668 -0.195262 13.5858 0.585786L0.857866 13.3137C0.0768176 14.0948 0.0768176 15.3611 0.857866 16.1421C1.63891 16.9232 2.90524 16.9232 3.68629 16.1421L15 4.82843L26.3137 16.1421C27.0948 16.9232 28.3611 16.9232 29.1421 16.1421C29.9232 15.3611 29.9232 14.0948 29.1421 13.3137L16.4142 0.585786ZM17 152L17 2L13 2L13 152L17 152Z" fill="#CFD5E2"/>
<path d="M314.414 153.414C315.195 152.633 315.195 151.367 314.414 150.586L301.686 137.858C300.905 137.077 299.639 137.077 298.858 137.858C298.077 138.639 298.077 139.905 298.858 140.686L310.172 152L298.858 163.314C298.077 164.095 298.077 165.361 298.858 166.142C299.639 166.923 300.905 166.923 301.686 166.142L314.414 153.414ZM13 154L313 154V150L13 150V154Z" fill="#CFD5E2"/>
</svg>
