<svg width="315" height="167" viewBox="0 0 315 167" fill="none" xmlns="http://www.w3.org/2000/svg">
<path d="M295 35C296.657 35 298 33.6568 298 32C298 30.3431 296.657 29 295 29L295 35ZM22.3673 152.882C27.7531 135.378 34.6319 125.87 41.965 120.585C49.2972 115.301 57.508 113.923 66.3083 113.568C70.782 113.388 75.1129 113.474 79.7171 113.403C84.2173 113.333 88.7942 113.111 93.247 112.278C102.313 110.582 110.779 106.358 117.505 96.1506L112.495 92.8494C106.804 101.486 99.8746 104.934 92.1436 106.381C88.198 107.119 84.0262 107.336 79.6248 107.403C75.3273 107.469 70.6034 107.39 66.0667 107.573C56.8462 107.945 47.2132 109.407 38.4568 115.718C29.7014 122.028 22.2469 132.872 16.6327 151.118L22.3673 152.882ZM117.505 96.1506C128.895 78.8653 148.019 78.4001 168.579 78.8038C178.587 79.0004 188.965 79.3859 198.05 77.5883C207.296 75.7589 215.55 71.6087 221.062 62.5608L215.938 59.4392C211.55 66.6413 205.022 70.0925 196.885 71.7025C188.588 73.3442 178.985 73.007 168.697 72.805C148.665 72.4117 125.939 72.4465 112.495 92.8494L117.505 96.1506ZM221.062 62.5608C230.957 46.3181 236.708 40.0001 245.756 37.1762C250.442 35.7135 256.19 35.1386 264.172 34.9602C272.173 34.7813 282.023 35 295 35L295 29C282.227 29 272.114 28.7812 264.037 28.9617C255.941 29.1427 249.494 29.724 243.968 31.4487C232.591 34.9999 225.842 43.1819 215.938 59.4392L221.062 62.5608Z" fill="#0372AD"/>
<path d="M16.4142 0.585786C15.6332 -0.195262 14.3668 -0.195262 13.5858 0.585786L0.857866 13.3137C0.0768176 14.0948 0.0768176 15.3611 0.857866 16.1421C1.63891 16.9232 2.90524 16.9232 3.68629 16.1421L15 4.82843L26.3137 16.1421C27.0948 16.9232 28.3611 16.9232 29.1421 16.1421C29.9232 15.3611 29.9232 14.0948 29.1421 13.3137L16.4142 0.585786ZM17 152L17 2L13 2L13 152L17 152Z" fill="#CFD5E2"/>
<path d="M314.414 153.414C315.195 152.633 315.195 151.367 314.414 150.586L301.686 137.858C300.905 137.077 299.639 137.077 298.858 137.858C298.077 138.639 298.077 139.905 298.858 140.686L310.172 152L298.858 163.314C298.077 164.095 298.077 165.361 298.858 166.142C299.639 166.923 300.905 166.923 301.686 166.142L314.414 153.414ZM13 154L313 154V150L13 150V154Z" fill="#CFD5E2"/>
</svg>
