<svg width="315" height="167" viewBox="0 0 315 167" fill="none" xmlns="http://www.w3.org/2000/svg">
<path d="M294.93 106.999C296.586 107.038 297.961 105.726 297.999 104.07C298.038 102.414 296.726 101.039 295.07 101.001L294.93 106.999ZM19.5 152.5C22.4494 153.049 22.4494 153.049 22.4495 153.048C22.4496 153.047 22.4498 153.047 22.4501 153.045C22.4507 153.042 22.4517 153.037 22.453 153.029C22.4557 153.015 22.4599 152.993 22.4655 152.963C22.4769 152.903 22.4942 152.812 22.5176 152.691C22.5643 152.449 22.635 152.087 22.7301 151.613C22.9202 150.664 23.2074 149.267 23.5938 147.485C24.3666 143.922 25.5353 138.824 27.115 132.703C30.277 120.451 35.0745 104.147 41.623 87.8697C48.1849 71.5592 56.4363 55.4508 66.4403 43.4697C76.4568 31.4736 87.8903 24 100.852 24L100.852 18C85.3654 18 72.4058 26.9639 61.8347 39.6241C51.2513 52.2992 42.7207 69.0658 36.0566 85.6303C29.3793 102.228 24.5068 118.799 21.3054 131.203C19.7034 137.411 18.517 142.586 17.7301 146.214C17.3366 148.028 17.0429 149.456 16.847 150.434C16.7491 150.923 16.6755 151.299 16.6262 151.554C16.6016 151.682 16.5829 151.78 16.5703 151.846C16.5641 151.88 16.5593 151.905 16.556 151.923C16.5543 151.931 16.553 151.938 16.5521 151.943C16.5517 151.945 16.5513 151.948 16.5511 151.949C16.5508 151.95 16.5506 151.951 19.5 152.5ZM100.852 24C114.315 24 126.179 28.7429 138.249 36.1655C150.44 43.6627 162.415 53.5971 176.496 63.9597C204.502 84.5704 239.411 105.703 294.93 106.999L295.07 101.001C241.288 99.7457 207.571 79.3788 180.052 59.1272C166.371 49.0586 153.859 38.7213 141.392 31.0546C128.803 23.3133 115.837 18 100.852 18L100.852 24Z" fill="#0372AD"/>
<path d="M16.4142 0.585786C15.6332 -0.195262 14.3668 -0.195262 13.5858 0.585786L0.857866 13.3137C0.0768176 14.0948 0.0768176 15.3611 0.857866 16.1421C1.63891 16.9232 2.90524 16.9232 3.68629 16.1421L15 4.82843L26.3137 16.1421C27.0948 16.9232 28.3611 16.9232 29.1421 16.1421C29.9232 15.3611 29.9232 14.0948 29.1421 13.3137L16.4142 0.585786ZM17 152L17 2L13 2L13 152L17 152Z" fill="#CFD5E2"/>
<path d="M314.414 153.414C315.195 152.633 315.195 151.367 314.414 150.586L301.686 137.858C300.905 137.077 299.639 137.077 298.858 137.858C298.077 138.639 298.077 139.905 298.858 140.686L310.172 152L298.858 163.314C298.077 164.095 298.077 165.361 298.858 166.142C299.639 166.923 300.905 166.923 301.686 166.142L314.414 153.414ZM13 154L313 154V150L13 150V154Z" fill="#CFD5E2"/>
</svg>
